# File created by Blade
# Date/Time:  Tue Sep 30 19:36:50 2014
#---------------------------------------------------------
:version 1.10
:name HOM
:units
  mass 1.0
  length 1.000000
  angle deg
:documentation
     Acclaim Skeleton File
:root
   axis xyz
   order TX TY TZ RX RY RZ
   position 0.000000 0.000000 0.000000
   orientation 0 0 0
:bonedata
   begin
      id 1
      name Spine_dum
      direction 0.000000 1.000000 0.000000
      length 3.241213
      axis 0.0 0.0 0.0 xyz
   end
   begin
      id 2
      name LeftUpLeg_dum
      direction 1.000000 0.000000 0.000000
      length 3.434019
      axis 0.0 0.0 0.0 xyz
   end
   begin
      id 3
      name RightUpLeg_dum
      direction -1.000000 0.000000 0.000000
      length 3.434019
      axis 0.0 0.0 0.0 xyz
   end
   begin
      id 4
      name Spine
      direction 0.000000 1.000000 0.000000
      length 0.000000
      axis 0.0 0.0 0.0 xyz
      dof rx ry rz
   end
   begin
      id 5
      name Spine_dum1
      direction 0.000000 1.000000 0.000000
      length 18.382958
      axis 0.0 0.0 0.0 xyz
   end
   begin
      id 6
      name Spine_dum2
      direction 0.000000 1.000000 0.000000
      length 12.828261
      axis 0.0 0.0 0.0 xyz
   end
   begin
      id 7
      name Spine_dum3
      direction 0.000000 1.000000 0.000000
      length 12.828261
      axis 0.0 0.0 0.0 xyz
   end
   begin
      id 8
      name Head
      direction 0.000000 1.000000 0.000000
      length 4.527550
      axis 0.0 0.0 0.0 xyz
      dof rx ry rz
   end
   begin
      id 9
      name LeftShoulder
      direction 1.000000 0.000000 0.000000
      length 7.748055
      axis 0.0 0.0 -90.0 xyz
      dof rx ry rz
   end
   begin
      id 10
      name LeftArm
      direction 1.000000 0.000000 0.000000
      length 10.635614
      axis 0.0 0.0 -90.0 xyz
      dof rx ry rz
   end
   begin
      id 11
      name LeftForeArm
      direction 1.000000 0.000000 0.000000
      length 8.346755
      axis 0.0 0.0 -90.0 xyz
      dof ry rz rx
   end
   begin
      id 12
      name LeftHand
      direction 0.000000 0.000000 0.000000
      length 0.000000
      axis 0.0 0.0 -90.0 xyz
      dof rx ry rz
   end
   begin
      id 13
      name LeftHand_dum1
      direction 0.000000 0.000000 0.000000
      length 0.000000
      axis 0.0 0.0 -90.0 xyz
   end
   begin
      id 14
      name LeftHand_dum2
      direction 1.000000 0.000000 0.000000
      length 3.937000
      axis 0.0 0.0 -90.0 xyz
   end
   begin
      id 15
      name LeftHandThumb1
      direction 0.000000 0.000000 1.000000
      length 3.937000
      axis 0.0 0.0 -90.0 xyz
      dof rx rz ry
   end
   begin
      id 16
      name RightShoulder
      direction -1.000000 0.000000 0.000000
      length 7.748055
      axis 0.0 0.0 90.0 xyz
      dof rx ry rz
   end
   begin
      id 17
      name RightArm
      direction -1.000000 0.000000 0.000000
      length 10.635614
      axis 0.0 0.0 90.0 xyz
      dof rx ry rz
   end
   begin
      id 18
      name RightForeArm
      direction -1.000000 0.000000 0.000000
      length 8.346755
      axis 0.0 0.0 90.0 xyz
      dof ry rz rx
   end
   begin
      id 19
      name RightHand
      direction 0.000000 0.000000 0.000000
      length 0.000000
      axis 0.0 0.0 90.0 xyz
      dof rx ry rz
   end
   begin
      id 20
      name RightHand_dum1
      direction 0.000000 0.000000 0.000000
      length 0.000000
      axis 0.0 0.0 90.0 xyz
   end
   begin
      id 21
      name RightHand_dum2
      direction -1.000000 0.000000 0.000000
      length 3.937000
      axis 0.0 0.0 90.0 xyz
   end
   begin
      id 22
      name RightHandThumb1
      direction 0.000000 0.000000 1.000000
      length 3.937000
      axis 0.0 0.0 90.0 xyz
      dof rx rz ry
   end
   begin
      id 23
      name LeftUpLeg
      direction 0.000000 -1.000000 0.000000
      length 15.713025
      axis 0.0 0.0 0.0 xyz
      dof rx ry rz
   end
   begin
      id 24
      name LeftLeg
      direction 0.000000 -1.000000 0.000000
      length 14.435119
      axis 0.0 0.0 0.0 xyz
      dof rx ry rz
   end
   begin
      id 25
      name LeftFoot
      direction 0.000000 -0.258819 0.965926
      length 4.938895
      axis 15.0 0.0 0.0 xyz
      dof rx ry rz
   end
   begin
      id 26
      name LeftToeBase
      direction 0.000000 0.000000 1.000000
      length 2.952750
      axis 0.0 0.0 0.0 xyz
      dof rx ry rz
   end
   begin
      id 27
      name RightUpLeg
      direction 0.000000 -1.000000 0.000000
      length 15.713025
      axis 0.0 0.0 0.0 xyz
      dof rx ry rz
   end
   begin
      id 28
      name RightLeg
      direction 0.000000 -1.000000 0.000000
      length 14.435119
      axis 0.0 0.0 0.0 xyz
      dof rx ry rz
   end
   begin
      id 29
      name RightFoot
      direction 0.000000 -0.258819 0.965926
      length 4.938895
      axis 15.0 0.0 0.0 xyz
      dof rx ry rz
   end
   begin
      id 30
      name RightToeBase
      direction 0.000000 0.000000 1.000000
      length 2.952750
      axis 0.0 0.0 0.0 xyz
      dof rx ry rz
   end
:hierarchy
   begin
      root Spine_dum LeftUpLeg_dum RightUpLeg_dum
      Spine_dum Spine
      LeftUpLeg_dum LeftUpLeg
      RightUpLeg_dum RightUpLeg
      Spine Spine_dum1 Spine_dum2 Spine_dum3
      Spine_dum1 Head
      Spine_dum2 LeftShoulder
      Spine_dum3 RightShoulder
      LeftShoulder LeftArm
      LeftArm LeftForeArm
      LeftForeArm LeftHand
      LeftHand LeftHand_dum1 LeftHand_dum2
      LeftHand_dum1 LeftHandThumb1
      RightShoulder RightArm
      RightArm RightForeArm
      RightForeArm RightHand
      RightHand RightHand_dum1 RightHand_dum2
      RightHand_dum1 RightHandThumb1
      LeftUpLeg LeftLeg
      LeftLeg LeftFoot
      LeftFoot LeftToeBase
      RightUpLeg RightLeg
      RightLeg RightFoot
      RightFoot RightToeBase
   end

# File created by Blade
# Date/Time:  Tue Sep 23 19:06:47 2014
# Frame Rate: 120.000 fps
#------------------------------------------------------
:FULLY-SPECIFIED
:DEGREES
383
root 2.648414 34.123775 -5.650386 36.600385 1.277723 -43.803402
Spine -37.575100 29.981412 15.047471
Head -6.285953 -14.164160 17.887308
LeftShoulder -19.569497 15.177234 38.408922
LeftArm 65.235103 -79.256871 -14.303489
LeftForeArm 97.027773 -0.000000 12.070294
LeftHand -15.478055 -0.000000 62.124448
LeftHandThumb1 -26.253704 0.000000 33.147579
RightShoulder -10.523109 -3.218877 -19.104783
RightArm 116.339233 41.682514 149.995463
RightForeArm 45.195779 -0.000000 65.699700
RightHand -1.969693 0.000000 22.792628
RightHandThumb1 -24.326973 -0.000000 -32.862282
LeftUpLeg -41.510889 26.145043 31.211734
LeftLeg 27.382034 -0.000000 -0.000000
LeftFoot -17.686808 20.218559 -2.371275
LeftToeBase 0.811025 -0.000000 -0.000000
RightUpLeg -180.667703 -37.637301 54.726456
RightLeg -2.697469 -0.000000 0.000000
RightFoot 31.391133 -18.878266 11.115008
RightToeBase 34.721139 -0.000000 -0.000000
384
root 2.627960 34.117220 -5.650618 36.518470 1.358650 -43.881307
Spine -37.556921 29.982302 15.048168
Head -6.396944 -14.207888 18.073885
LeftShoulder -19.617633 14.974743 38.534716
LeftArm 66.100309 -79.326514 -15.285426
LeftForeArm 96.868172 -0.000000 12.469366
LeftHand -15.140024 0.000000 61.888582
LeftHandThumb1 -26.253704 0.000000 33.147579
RightShoulder -10.477770 -3.247674 -19.095141
RightArm 116.291249 41.679725 149.964972
RightForeArm 45.197050 -0.000000 65.666870
RightHand -1.971093 0.000000 22.743873
RightHandThumb1 -24.326973 -0.000000 -32.862282
LeftUpLeg -41.625896 25.980173 31.426018
LeftLeg 27.698566 -0.000000 -0.000000
LeftFoot -17.415907 20.590168 -2.146582
LeftToeBase 0.218742 -0.000000 -0.000000
RightUpLeg -180.614568 -37.680562 54.633897
RightLeg -2.618249 -0.000000 0.000000
RightFoot 31.471058 -18.825094 11.138229
RightToeBase 34.760259 -0.000000 -0.000000
385
root 2.609120 34.111744 -5.648961 36.430522 1.430353 -43.896031
Spine -37.548299 29.954767 14.991538
Head -6.520681 -14.248165 18.222678
LeftShoulder -19.599068 14.854396 38.646755
LeftArm 66.155457 -79.441653 -15.449977
LeftForeArm 96.764195 -0.000000 12.810667
LeftHand -15.164818 -0.000000 61.847967
LeftHandThumb1 -26.253704 0.000000 33.147579
RightShoulder -10.395233 -3.360547 -19.124507
RightArm 116.302264 41.660478 150.045969
RightForeArm 45.261141 0.000000 65.735731
RightHand -2.000168 0.000000 22.666595
RightHandThumb1 -24.326973 -0.000000 -32.862282
LeftUpLeg -41.703159 25.766104 31.543576
LeftLeg 27.903004 -0.000000 -0.000000
LeftFoot -17.077641 21.102617 -1.712816
LeftToeBase -0.177455 -0.000000 0.000000
RightUpLeg -180.624487 -37.683566 54.502508
RightLeg -2.514068 -0.000000 0.000000
RightFoot 31.522955 -18.698108 11.039287
RightToeBase 34.721517 -0.000000 -0.000000
386
root 2.590036 34.109177 -5.648645 36.394462 1.492219 -43.904805
Spine -37.569072 29.950594 14.895784
Head -6.688875 -14.387216 18.389648
LeftShoulder -19.646775 14.740685 38.745168
LeftArm 66.621799 -79.584748 -16.076443
LeftForeArm 96.597408 -0.000000 13.232891
LeftHand -14.850673 -0.000000 61.646674
LeftHandThumb1 -26.253704 0.000000 33.147579
RightShoulder -10.396133 -3.516952 -19.131815
RightArm 116.268393 41.538784 150.072669
RightForeArm 45.249640 0.000000 65.830807
RightHand -1.963149 -0.000000 22.672892
RightHandThumb1 -24.326973 -0.000000 -32.862282
LeftUpLeg -41.771655 25.619919 31.596763
LeftLeg 27.979156 -0.000000 -0.000000
LeftFoot -16.634340 21.605987 -1.031255
LeftToeBase -0.596492 -0.000000 0.000000
RightUpLeg -180.593747 -37.804945 54.400302
RightLeg -2.620132 -0.000000 0.000000
RightFoot 31.529071 -18.823188 11.092625
RightToeBase 34.709719 -0.000000 -0.000000
387
root 2.574639 34.110717 -5.643870 36.371518 1.573286 -43.898863
Spine -37.636293 29.932733 14.789408
Head -6.799749 -14.420119 18.452695
LeftShoulder -19.659136 14.617202 38.808497
LeftArm 66.790453 -79.685880 -16.243356
LeftForeArm 96.822572 -0.000000 13.364610
LeftHand -15.224524 -0.000000 61.830120
LeftHandThumb1 -26.253704 0.000000 33.147579
RightShoulder -10.422661 -3.682468 -19.117132
RightArm 116.186801 41.420812 150.015267
RightForeArm 45.470095 -0.000000 65.932685
RightHand -1.895848 -0.000000 22.584604
RightHandThumb1 -24.326973 -0.000000 -32.862282
LeftUpLeg -41.770334 25.404342 31.643811
LeftLeg 27.879940 -0.000000 -0.000000
LeftFoot -15.982965 22.241894 -0.004658
LeftToeBase -1.187871 -0.000000 0.000000
RightUpLeg -180.648969 -37.809261 54.337121
RightLeg -2.635319 -0.000000 0.000000
RightFoot 31.395965 -18.844009 11.190701
RightToeBase 34.730810 -0.000000 -0.000000
388
root 2.563335 34.113747 -5.640432 36.408704 1.620905 -43.880106
Spine -37.780748 29.959291 14.632594
Head -6.888164 -14.510491 18.536908
LeftShoulder -19.611228 14.527657 38.840888
LeftArm 67.189909 -79.846405 -16.597499
LeftForeArm 97.059350 0.000000 13.409977
LeftHand -15.511783 -0.000000 62.024242
LeftHandThumb1 -26.253704 0.000000 33.147579
RightShoulder -10.437040 -3.807864 -19.133619
RightArm 116.119836 41.309010 150.014885
RightForeArm 45.326615 -0.000000 66.081689
RightHand -1.872689 -0.000000 22.586143
RightHandThumb1 -24.326973 -0.000000 -32.862282
LeftUpLeg -41.721703 25.166238 31.680960
LeftLeg 27.653603 -0.000000 -0.000000
LeftFoot -15.393426 22.836849 0.922793
LeftToeBase -1.557784 -0.000000 0.000000
RightUpLeg -180.718876 -37.742361 54.267240
RightLeg -2.692341 -0.000000 0.000000
RightFoot 31.277048 -18.912680 11.277255
RightToeBase 34.840295 -0.000000 -0.000000
389
root 2.552622 34.120931 -5.635796 36.510149 1.654199 -43.902515
Spine -38.011436 30.003376 14.485103
Head -6.917681 -14.533176 18.624449
LeftShoulder -19.567505 14.449878 38.937967
LeftArm 67.564947 -79.919193 -17.003807
LeftForeArm 97.175471 0.000000 13.522329
LeftHand -15.825440 -0.000000 62.212789
LeftHandThumb1 -26.253704 0.000000 33.147579
RightShoulder -10.427670 -3.810367 -19.138334
RightArm 115.971293 41.272528 149.888268
RightForeArm 45.204839 -0.000000 66.153715
RightHand -1.836893 0.000000 22.543276
RightHandThumb1 -24.326973 -0.000000 -32.862282
LeftUpLeg -41.686191 25.062505 31.696229
LeftLeg 27.354977 -0.000000 -0.000000
LeftFoot -14.745459 23.316400 1.987767
LeftToeBase -1.939738 -0.000000 0.000000
RightUpLeg -180.756096 -37.667314 54.242587
RightLeg -2.850973 -0.000000 0.000000
RightFoot 31.177672 -19.060904 11.451977
RightToeBase 34.908149 -0.000000 -0.000000
390
root 2.543929 34.131924 -5.631464 36.619478 1.706468 -43.997989
Spine -38.218622 30.087299 14.438529
Head -6.913847 -14.591247 18.677721
LeftShoulder -19.514514 14.377355 38.989910
LeftArm 68.286278 -80.054006 -17.770241
LeftForeArm 97.247177 0.000000 13.674951
LeftHand -15.971785 -0.000000 62.368054
LeftHandThumb1 -26.253704 0.000000 33.147579
RightShoulder -10.476444 -3.709565 -19.174254
RightArm 115.737464 41.236711 149.696189
RightForeArm 45.221260 -0.000000 66.228530
RightHand -1.832067 -0.000000 22.457385
RightHandThumb1 -24.326973 -0.000000 -32.862282
LeftUpLeg -41.563902 24.786354 31.935035
LeftLeg 27.044481 -0.000000 -0.000000
LeftFoot -14.292407 23.885740 2.640057
LeftToeBase -2.037822 -0.000000 0.000000
RightUpLeg -180.758714 -37.561251 54.293499
RightLeg -3.044606 -0.000000 0.000000
RightFoot 31.176501 -19.093691 11.486599
RightToeBase 34.916947 -0.000000 -0.000000
391
root 2.535626 34.146747 -5.624147 36.708933 1.720891 -44.133426
Spine -38.397251 30.177691 14.455679
Head -6.829178 -14.583396 18.712177
LeftShoulder -19.464608 14.358539 39.039485
LeftArm 69.074642 -80.178538 -18.596769
LeftForeArm 97.293279 -0.000000 13.807206
LeftHand -16.161513 0.000000 62.451873
LeftHandThumb1 -26.253704 0.000000 33.147579
RightShoulder -10.434375 -3.562284 -19.204923
RightArm 115.575398 41.256974 149.528583
RightForeArm 44.971154 -0.000000 66.228173
RightHand -1.813989 -0.000000 22.621093
RightHandThumb1 -24.326973 -0.000000 -32.862282
LeftUpLeg -41.414721 24.664424 32.165921
LeftLeg 26.763678 -0.000000 -0.000000
LeftFoot -13.937570 24.243363 3.158324
LeftToeBase -2.049849 -0.000000 0.000000
RightUpLeg -180.702810 -37.443943 54.330768
RightLeg -3.231251 -0.000000 0.000000
RightFoot 31.131128 -19.136710 11.689092
RightToeBase 34.970095 -0.000000 -0.000000
392
root 2.526191 34.164519 -5.617486 36.789266 1.713860 -44.286597
Spine -38.539628 30.260290 14.510365
Head -6.735455 -14.522447 18.748491
LeftShoulder -19.419381 14.373758 39.091422
LeftArm 70.265122 -80.347862 -19.889864
LeftForeArm 97.332853 0.000000 14.055783
LeftHand -16.092680 0.000000 62.417872
LeftHandThumb1 -26.253704 0.000000 33.147579
RightShoulder -10.365288 -3.372642 -19.241678
RightArm 115.399694 41.284246 149.359376
RightForeArm 44.924732 -0.000000 66.269155
RightHand -1.885274 0.000000 22.515374
RightHandThumb1 -24.326973 -0.000000 -32.862282
LeftUpLeg -41.222481 24.524906 32.453349
LeftLeg 26.494549 -0.000000 -0.000000
LeftFoot -13.661559 24.582690 3.475264
LeftToeBase -1.969143 -0.000000 0.000000
RightUpLeg -180.652127 -37.296659 54.349128
RightLeg -3.318295 -0.000000 0.000000
RightFoot 31.042969 -19.146156 11.804753
RightToeBase 34.836466 -0.000000 -0.000000
393
root 2.512801 34.185587 -5.606478 36.840281 1.738878 -44.474652
Spine -38.663495 30.332113 14.605693
Head -6.646040 -14.491399 18.814103
LeftShoulder -19.365848 14.364164 39.195796
LeftArm 71.522735 -80.477791 -21.308882
LeftForeArm 97.256437 0.000000 14.385022
LeftHand -15.983285 0.000000 62.284525
LeftHandThumb1 -26.253704 0.000000 33.147579
RightShoulder -10.355781 -3.211475 -19.285183
RightArm 115.184475 41.326797 149.155554
RightForeArm 44.866344 -0.000000 66.227504
RightHand -1.872284 -0.000000 22.593879
RightHandThumb1 -24.326973 -0.000000 -32.862282
LeftUpLeg -41.046651 24.494774 32.742823
LeftLeg 26.258704 -0.000000 -0.000000
LeftFoot -13.422245 24.767600 3.711885
LeftToeBase -1.944152 -0.000000 0.000000
RightUpLeg -180.619793 -37.252143 54.438138
RightLeg -3.393260 -0.000000 0.000000
RightFoot 30.896895 -19.225130 12.031947
RightToeBase 34.894720 -0.000000 -0.000000
394
root 2.498936 34.206692 -5.594253 36.867761 1.765345 -44.613653
Spine -38.738787 30.326437 14.702574
Head -6.586286 -14.407130 18.916593
LeftShoulder -19.387809 14.360816 39.298770
LeftArm 72.792758 -80.550100 -22.753953
LeftForeArm 97.016767 -0.000000 14.756712
LeftHand -15.670070 -0.000000 62.093921
LeftHandThumb1 -26.253704 0.000000 33.147579
RightShoulder -10.311592 -3.103345 -19.333098
RightArm 115.017145 41.342573 148.993930
RightForeArm 44.849373 -0.000000 66.205265
RightHand -1.857489 -0.000000 22.491407
RightHandThumb1 -24.326973 -0.000000 -32.862282
LeftUpLeg -40.874361 24.464835 32.978985
LeftLeg 26.040401 -0.000000 -0.000000
LeftFoot -13.258051 24.872829 3.819333
LeftToeBase -1.877048 -0.000000 0.000000
RightUpLeg -180.635245 -37.262609 54.506288
RightLeg -3.432799 -0.000000 0.000000
RightFoot 30.840644 -19.286957 12.116038
RightToeBase 34.969201 -0.000000 -0.000000
395
root 2.481177 34.229364 -5.582418 36.918177 1.772701 -44.715116
Spine -38.853427 30.303721 14.706785
Head -6.561018 -14.324280 19.077859
LeftShoulder -19.395065 14.248795 39.457984
LeftArm 73.728843 -80.547523 -23.821990
LeftForeArm 96.716955 -0.000000 15.117596
LeftHand -15.260967 -0.000000 61.837853
LeftHandThumb1 -26.253704 0.000000 33.147579
RightShoulder -10.256139 -3.154980 -19.341848
RightArm 114.968460 41.312657 148.956309
RightForeArm 44.991638 -0.000000 66.232096
RightHand -1.829096 -0.000000 22.555473
RightHandThumb1 -24.326973 -0.000000 -32.862282
LeftUpLeg -40.728896 24.493296 33.138696
LeftLeg 25.809628 -0.000000 -0.000000
LeftFoot -13.084622 24.926681 3.942195
LeftToeBase -1.759241 -0.000000 0.000000
RightUpLeg -180.670158 -37.435130 54.562710
RightLeg -3.511492 -0.000000 0.000000
RightFoot 30.808526 -19.435687 12.121135
RightToeBase 35.001428 -0.000000 -0.000000
